<?xml version="1.0" standalone="no"?>
<!DOCTYPE svg PUBLIC "-//W3C//DTD SVG 20010904//EN"
 "http://www.w3.org/TR/2001/REC-SVG-20010904/DTD/svg10.dtd">
<svg version="1.0" xmlns="http://www.w3.org/2000/svg"
 width="500.000000pt" height="500.000000pt" viewBox="0 0 500.000000 500.000000"
 preserveAspectRatio="xMidYMid meet">

<g transform="translate(0.000000,500.000000) scale(0.100000,-0.100000)"
fill="#000000" stroke="none">
<path d="M765 2783 c-258 -555 -524 -1126 -591 -1270 l-122 -263 192 0 193 0
399 879 c219 484 401 878 403 876 4 -4 534 -1171 694 -1527 l102 -227 194 -1
c151 0 192 3 188 13 -24 58 -1171 2514 -1176 2520 -4 4 -218 -446 -476 -1000z"/>
<path d="M3675 3764 c-16 -2 -66 -9 -110 -15 -233 -31 -488 -158 -676 -336
-176 -168 -300 -385 -366 -641 -23 -92 -29 -378 -9 -492 90 -517 486 -925
1006 -1036 118 -25 373 -25 488 0 420 90 751 380 896 784 l26 72 -185 0 -184
0 -31 -62 c-75 -148 -189 -272 -316 -346 -152 -87 -280 -117 -478 -109 -162 6
-221 20 -353 82 -273 128 -448 350 -514 650 -19 87 -17 304 4 388 81 325 319
574 644 674 80 25 102 27 253 27 154 0 171 -2 250 -28 208 -68 327 -164 482
-389 12 -18 22 -16 188 33 96 28 176 52 177 54 1 1 -16 33 -39 71 -192 323
-482 535 -820 600 -84 16 -277 27 -333 19z"/>
<path d="M3680 2435 l0 -175 644 0 643 0 7 53 c3 28 6 107 6 175 l0 122 -650
0 -650 0 0 -175z"/>
</g>
</svg>
